<svg version="1.1" id="Layer_1" xmlns="http://www.w3.org/2000/svg" xmlns:xlink="http://www.w3.org/1999/xlink" x="0px" y="0px"
	 width="100%" viewBox="0 0 468 413" enable-background="new 0 0 468 413" xml:space="preserve">
<path fill="#F5B183" opacity="1.000000" stroke="none" 
	d="
M238.000000,414.000000 
	C160.021973,414.000000 82.543922,413.975189 5.066060,414.085938 
	C1.787919,414.090607 0.893905,413.627869 0.897114,410.068115 
	C1.018803,275.106537 1.021486,140.144760 0.889275,5.183171 
	C0.885566,1.396593 1.887823,0.915644 5.314577,0.917770 
	C158.437744,1.012800 311.560974,1.012742 464.684143,0.918062 
	C468.107513,0.915945 469.114685,1.391828 469.110962,5.181911 
	C468.978424,140.143509 468.981232,275.105255 469.102753,410.066864 
	C469.105957,413.624023 468.216064,414.091034 464.935211,414.086182 
	C389.456909,413.974457 313.978455,414.000000 238.000000,414.000000 
z"/>
<path fill="#C02101" opacity="1.000000" stroke="none" 
	d="
M251.779724,64.966980 
	C258.274323,65.568810 261.589325,69.159218 263.585205,74.698128 
	C292.349091,154.522919 321.180847,234.323242 349.994019,314.130280 
	C353.892761,324.929077 357.785675,335.730011 361.661438,346.537079 
	C362.109894,347.787537 362.522858,349.064545 362.794586,350.362244 
	C364.270752,357.411102 362.104980,360.290741 354.963379,361.063232 
	C346.973114,361.927551 338.997681,361.690613 331.013306,361.009857 
	C325.902435,360.574066 322.413574,358.390900 320.618347,353.228485 
	C312.968719,331.231079 305.007172,309.341766 297.432556,287.319092 
	C296.228546,283.818604 294.631561,282.850250 291.101013,282.861664 
	C253.612778,282.982849 216.123825,282.986664 178.635635,282.857361 
	C175.017395,282.844879 173.545166,283.963379 172.396881,287.444885 
	C165.466873,308.455963 158.070526,329.313416 151.164551,350.332153 
	C148.810760,357.496063 144.491577,360.851471 137.003937,361.223877 
	C130.659378,361.539429 124.363808,361.692810 118.050858,361.028564 
	C110.806000,360.266266 108.462196,357.541351 110.142799,350.413757 
	C111.510788,344.612030 113.749680,339.002411 115.782631,333.372681 
	C141.325775,262.637421 166.902985,191.914429 192.468307,121.187164 
	C198.180756,105.383476 204.001984,89.617462 209.522064,73.746780 
	C211.487839,68.095001 215.252289,65.478775 220.924774,64.894821 
	C231.072540,63.850174 241.213287,63.875259 251.779724,64.966980 
z"/>
<path fill="#F5B082" opacity="1.000000" stroke="none" 
	d="
M228.170807,123.221352 
	C230.185837,117.557495 232.076294,112.266167 234.362122,105.868202 
	C240.121811,122.157654 245.509811,137.290283 250.824371,152.448669 
	C261.667572,183.376007 272.461395,214.320694 283.299927,245.249695 
	C285.356049,251.117065 285.408020,251.109024 279.230072,251.109833 
	C249.406219,251.113708 219.582367,251.114090 189.758514,251.109512 
	C184.123886,251.108658 184.033234,251.064392 185.859253,245.773880 
	C198.722458,208.505493 211.627533,171.251572 224.513931,133.991180 
	C225.710281,130.531952 226.869675,127.059944 228.170807,123.221352 
z"/>
</svg>