<svg version="1.1" id="Layer_1" xmlns="http://www.w3.org/2000/svg" xmlns:xlink="http://www.w3.org/1999/xlink" x="0px" y="0px"
	 width="100%" viewBox="0 0 468 417" enable-background="new 0 0 468 417" xml:space="preserve">
<path fill="#A9D18E" opacity="1.000000" stroke="none" 
	d="
M305.000000,418.000000 
	C203.361893,418.000000 102.223785,418.000000 1.042837,418.000000 
	C1.042837,279.067810 1.042837,140.135605 1.042837,1.101694 
	C156.888107,1.101694 312.776306,1.101694 468.832245,1.101694 
	C468.832245,139.999832 468.832245,278.999908 468.832245,418.000000 
	C414.468903,418.000000 359.984467,418.000000 305.000000,418.000000 
M173.500275,361.341309 
	C192.494217,361.340698 211.488708,361.251587 230.481918,361.368927 
	C244.364197,361.454651 258.111603,360.534241 271.541931,356.785065 
	C288.170563,352.143097 303.366577,344.796814 315.152283,331.832947 
	C332.617676,312.621674 337.630859,289.513702 334.397827,264.471466 
	C331.438904,241.552246 320.230042,223.399063 299.994598,211.652832 
	C293.685394,207.990479 286.567200,205.721741 279.478027,202.668015 
	C281.015137,201.828964 282.441437,201.077469 283.842407,200.281387 
	C293.904053,194.564011 302.018951,186.871338 307.619720,176.671280 
	C318.072754,157.634384 318.553925,137.417404 313.542542,117.006729 
	C309.666412,101.219910 300.393036,88.742973 286.462555,80.051338 
	C274.218689,72.412048 260.681946,67.707878 246.440048,67.227379 
	C215.653183,66.188652 184.828461,66.184731 154.017761,66.003456 
	C146.638901,65.960045 141.947403,70.448296 140.684296,77.691666 
	C140.258392,80.133987 140.159317,82.658852 140.158585,85.146065 
	C140.133148,170.784363 140.134277,256.422668 140.154572,342.060974 
	C140.155121,344.385254 140.207825,346.742340 140.581055,349.027802 
	C141.861206,356.866882 146.536697,361.023590 154.508118,361.271545 
	C160.500580,361.457916 166.502838,361.329376 173.500275,361.341309 
z"/>
<path fill="#022260" opacity="1.000000" stroke="none" 
	d="
M173.000504,361.341156 
	C166.502838,361.329376 160.500580,361.457916 154.508118,361.271545 
	C146.536697,361.023590 141.861206,356.866882 140.581055,349.027802 
	C140.207825,346.742340 140.155121,344.385254 140.154572,342.060974 
	C140.134277,256.422668 140.133148,170.784363 140.158585,85.146065 
	C140.159317,82.658852 140.258392,80.133987 140.684296,77.691666 
	C141.947403,70.448296 146.638901,65.960045 154.017761,66.003456 
	C184.828461,66.184731 215.653183,66.188652 246.440048,67.227379 
	C260.681946,67.707878 274.218689,72.412048 286.462555,80.051338 
	C300.393036,88.742973 309.666412,101.219910 313.542542,117.006729 
	C318.553925,137.417404 318.072754,157.634384 307.619720,176.671280 
	C302.018951,186.871338 293.904053,194.564011 283.842407,200.281387 
	C282.441437,201.077469 281.015137,201.828964 279.478027,202.668015 
	C286.567200,205.721741 293.685394,207.990479 299.994598,211.652832 
	C320.230042,223.399063 331.438904,241.552246 334.397827,264.471466 
	C337.630859,289.513702 332.617676,312.621674 315.152283,331.832947 
	C303.366577,344.796814 288.170563,352.143097 271.541931,356.785065 
	C258.111603,360.534241 244.364197,361.454651 230.481918,361.368927 
	C211.488708,361.251587 192.494217,361.340698 173.000504,361.341156 
M284.614838,308.041016 
	C306.754150,273.753937 288.592865,232.025970 248.097321,227.125153 
	C225.909393,224.439972 203.242813,225.708008 180.791473,225.221436 
	C180.527710,225.215714 180.255844,225.583466 179.966492,225.792236 
	C179.966492,259.842773 179.966492,293.903076 179.966492,328.990631 
	C203.912521,328.417603 227.536957,328.501984 251.064957,327.037231 
	C264.441833,326.204498 275.667358,319.305115 284.614838,308.041016 
M260.291473,108.128555 
	C253.243225,105.346962 246.341110,100.710831 239.118530,100.141792 
	C219.742584,98.615211 200.229584,98.826866 180.770294,98.378754 
	C180.523636,98.373077 180.267700,98.770081 179.942566,99.040230 
	C179.942566,130.225677 179.942566,161.467468 179.942566,193.719070 
	C199.878799,193.141525 219.473999,192.610764 239.064774,191.948944 
	C241.011017,191.883194 242.975403,191.149506 244.855072,190.503677 
	C264.569000,183.730530 275.743652,167.664963 275.732635,145.141983 
	C275.725769,131.100281 272.724945,117.947945 260.291473,108.128555 
z"/>
<path fill="#A9D18E" opacity="1.000000" stroke="none" 
	d="
M284.397095,308.326477 
	C275.667358,319.305115 264.441833,326.204498 251.064957,327.037231 
	C227.536957,328.501984 203.912521,328.417603 179.966492,328.990631 
	C179.966492,293.903076 179.966492,259.842773 179.966492,225.792236 
	C180.255844,225.583466 180.527710,225.215714 180.791473,225.221436 
	C203.242813,225.708008 225.909393,224.439972 248.097321,227.125153 
	C288.592865,232.025970 306.754150,273.753937 284.397095,308.326477 
z"/>
<path fill="#A8D08E" opacity="1.000000" stroke="none" 
	d="
M260.576721,108.349136 
	C272.724945,117.947945 275.725769,131.100281 275.732635,145.141983 
	C275.743652,167.664963 264.569000,183.730530 244.855072,190.503677 
	C242.975403,191.149506 241.011017,191.883194 239.064774,191.948944 
	C219.473999,192.610764 199.878799,193.141525 179.942566,193.719070 
	C179.942566,161.467468 179.942566,130.225677 179.942566,99.040230 
	C180.267700,98.770081 180.523636,98.373077 180.770294,98.378754 
	C200.229584,98.826866 219.742584,98.615211 239.118530,100.141792 
	C246.341110,100.710831 253.243225,105.346962 260.576721,108.349136 
z"/>
</svg>