<svg version="1.1" id="Layer_1" xmlns="http://www.w3.org/2000/svg" xmlns:xlink="http://www.w3.org/1999/xlink" x="0px" y="0px"
	 width="100%" viewBox="0 0 468 419" enable-background="new 0 0 468 419" xml:space="preserve">
<path fill="#FFE699" opacity="1.000000" stroke="none" 
	d="
M334.000000,420.000000 
	C222.697876,420.000000 111.895760,420.000000 1.046821,420.000000 
	C1.046821,280.403900 1.046821,140.807770 1.046821,1.105823 
	C156.885452,1.105823 312.770996,1.105823 468.828278,1.105823 
	C468.828278,140.666489 468.828278,280.333221 468.828278,420.000000 
	C424.141083,420.000000 379.320526,420.000000 334.000000,420.000000 
M169.867538,177.458405 
	C171.923523,170.267822 173.516281,162.904510 176.121063,155.918549 
	C184.426956,133.642471 197.435089,114.997742 219.989212,105.258148 
	C246.769577,93.693520 273.416412,96.136246 299.122589,108.875725 
	C308.313507,113.430573 316.588257,119.806229 325.437103,125.089600 
	C330.846680,128.319519 334.295074,126.895180 336.224060,121.220917 
	C341.736511,105.005844 336.564301,90.534485 322.073517,81.640007 
	C321.363922,81.204460 320.642761,80.786308 319.913818,80.383934 
	C294.638824,66.431839 267.501923,61.129810 238.937790,64.037834 
	C194.517258,68.560150 162.228989,91.212997 141.880280,130.846146 
	C130.524292,152.964172 125.133408,176.707626 123.654022,201.398117 
	C121.712433,233.802658 123.927734,265.683319 136.620438,296.070099 
	C147.827026,322.899048 165.737869,343.614624 192.445801,356.025940 
	C208.694244,363.576691 225.887939,366.708527 243.753433,367.372498 
	C270.693756,368.373779 296.086090,363.026428 319.663727,349.946228 
	C338.060791,339.740082 340.910767,333.563599 338.236603,312.590637 
	C337.095703,303.642883 333.303864,301.846252 325.513580,306.715393 
	C320.431732,309.891663 315.559265,313.406158 310.446136,316.528564 
	C287.274933,330.678314 262.131378,335.487518 235.579193,330.453217 
	C205.805359,324.808105 186.539886,306.208954 176.172928,278.297058 
	C164.059296,245.682419 164.050125,212.126480 169.867538,177.458405 
z"/>
<path fill="#7131A0" opacity="1.000000" stroke="none" 
	d="
M169.765930,177.868713 
	C164.050125,212.126480 164.059296,245.682419 176.172928,278.297058 
	C186.539886,306.208954 205.805359,324.808105 235.579193,330.453217 
	C262.131378,335.487518 287.274933,330.678314 310.446136,316.528564 
	C315.559265,313.406158 320.431732,309.891663 325.513580,306.715393 
	C333.303864,301.846252 337.095703,303.642883 338.236603,312.590637 
	C340.910767,333.563599 338.060791,339.740082 319.663727,349.946228 
	C296.086090,363.026428 270.693756,368.373779 243.753433,367.372498 
	C225.887939,366.708527 208.694244,363.576691 192.445801,356.025940 
	C165.737869,343.614624 147.827026,322.899048 136.620438,296.070099 
	C123.927734,265.683319 121.712433,233.802658 123.654022,201.398117 
	C125.133408,176.707626 130.524292,152.964172 141.880280,130.846146 
	C162.228989,91.212997 194.517258,68.560150 238.937790,64.037834 
	C267.501923,61.129810 294.638824,66.431839 319.913818,80.383934 
	C320.642761,80.786308 321.363922,81.204460 322.073517,81.640007 
	C336.564301,90.534485 341.736511,105.005844 336.224060,121.220917 
	C334.295074,126.895180 330.846680,128.319519 325.437103,125.089600 
	C316.588257,119.806229 308.313507,113.430573 299.122589,108.875725 
	C273.416412,96.136246 246.769577,93.693520 219.989212,105.258148 
	C197.435089,114.997742 184.426956,133.642471 176.121063,155.918549 
	C173.516281,162.904510 171.923523,170.267822 169.765930,177.868713 
z"/>
</svg>