<svg version="1.1" id="Layer_1" xmlns="http://www.w3.org/2000/svg" xmlns:xlink="http://www.w3.org/1999/xlink" x="0px" y="0px"
	 width="100%" viewBox="0 0 613 509" enable-background="new 0 0 613 509" xml:space="preserve">
<path fill="#FFFFFF" opacity="1.000000" stroke="none" 
	d="
M437.000000,510.000000 
	C292.833344,510.000000 149.166656,509.983002 5.500073,510.094086 
	C1.750593,510.096985 0.903720,509.249329 0.906161,505.499939 
	C1.014674,338.833344 1.014674,172.166656 0.906161,5.500061 
	C0.903720,1.750672 1.750754,0.904443 5.500049,0.906412 
	C206.833328,1.012167 408.166656,1.012167 609.499939,0.906412 
	C613.249268,0.904443 614.096252,1.750672 614.093811,5.500061 
	C613.985291,172.166656 613.985291,338.833344 614.093811,505.499939 
	C614.096252,509.249329 613.250427,510.105469 609.499756,510.096405 
	C552.166809,509.957916 494.833344,510.000000 437.000000,510.000000 
z"/>
<path fill="#FFC001" opacity="1.000000" stroke="none" 
	d="
M384.155701,292.089661 
	C371.345886,314.940735 353.315552,331.256256 328.544373,339.243805 
	C287.538910,352.466187 245.495804,337.665985 220.214813,301.517975 
	C189.089630,257.013641 199.668121,192.309998 243.253036,160.603638 
	C295.601257,122.522301 369.062378,146.045044 390.150269,207.678574 
	C400.011993,236.501434 398.130371,264.552277 384.155701,292.089661 
z"/>
<path fill="#FFC206" opacity="1.000000" stroke="none" 
	d="
M103.057831,234.988037 
	C127.360176,234.988052 151.173615,235.106598 174.983994,234.890015 
	C179.861832,234.845642 181.366104,236.398483 181.178162,241.198547 
	C180.725540,252.758011 182.944077,251.728546 170.371704,251.741425 
	C146.392853,251.765991 122.413963,251.751663 98.435097,251.746719 
	C91.608475,251.745316 91.353363,251.485367 91.332222,244.806595 
	C91.330635,244.307037 91.331955,243.807465 91.332024,243.307907 
	C91.333214,234.989166 91.333206,234.989151 99.570557,234.988052 
	C100.569649,234.987915 101.568748,234.988037 103.057831,234.988037 
z"/>
<path fill="#FFC104" opacity="1.000000" stroke="none" 
	d="
M175.569489,355.566589 
	C186.192139,345.193695 196.662582,335.166504 206.866318,324.874847 
	C210.142365,321.570587 212.403366,321.049408 215.805496,324.767731 
	C223.615875,333.303986 223.287628,331.431763 215.749985,338.845306 
	C198.054337,356.249725 180.211975,373.505493 162.588089,390.981842 
	C159.441422,394.102142 157.392761,393.969299 154.488708,390.809418 
	C146.439194,382.050873 146.279068,384.338623 154.607193,376.079529 
	C161.465210,369.278351 168.408417,362.563110 175.569489,355.566589 
z"/>
<path fill="#FFC104" opacity="1.000000" stroke="none" 
	d="
M393.790100,160.814087 
	C392.720825,161.896149 391.817810,162.659149 391.103790,163.570221 
	C388.658691,166.690063 386.520386,166.409363 383.781769,163.640656 
	C374.770325,154.530182 374.983551,157.033386 383.466583,148.309128 
	C400.285095,131.012268 417.205383,113.814339 434.089081,96.580917 
	C438.835144,91.736534 438.855774,91.762070 443.530487,96.300072 
	C451.387238,103.927086 450.794647,102.589073 443.631317,109.925682 
	C427.126984,126.829269 410.575378,143.686722 393.790100,160.814087 
z"/>
<path fill="#FFC104" opacity="1.000000" stroke="none" 
	d="
M149.640427,102.425262 
	C158.978882,91.216293 158.986481,91.208786 168.792297,101.136513 
	C185.265686,117.814705 201.733383,134.498535 218.192154,151.191147 
	C222.648712,155.711029 222.657761,155.996262 218.295868,160.262909 
	C210.614212,167.776810 212.267517,168.175705 204.374054,160.159225 
	C187.227127,142.745087 170.032379,125.378036 152.890900,107.958557 
	C151.429626,106.473587 149.393906,105.273621 149.640427,102.425262 
z"/>
<path fill="#FFC104" opacity="1.000000" stroke="none" 
	d="
M450.133392,384.029785 
	C448.363220,388.311005 444.843781,390.695679 441.891968,393.534607 
	C439.611786,395.727600 438.014313,393.484741 436.514954,391.982666 
	C426.284698,381.734039 416.067017,371.472900 405.849304,361.211761 
	C397.394379,352.720825 389.036713,344.129944 380.443237,335.781708 
	C377.453308,332.877136 377.512726,330.804626 380.484070,327.982452 
	C388.989166,319.904358 387.255493,319.632507 395.680878,328.100372 
	C412.705933,345.211243 429.753876,362.299347 446.766876,379.422150 
	C448.030884,380.694275 449.689728,381.699524 450.133392,384.029785 
z"/>
<path fill="#FFC107" opacity="1.000000" stroke="none" 
	d="
M307.012665,384.000122 
	C307.012634,405.124359 306.921112,425.749390 307.089935,446.372284 
	C307.123627,450.485779 305.842896,451.938385 301.683258,451.919739 
	C291.255463,451.872925 291.254883,452.032654 291.254913,441.732910 
	C291.254974,417.449463 291.252930,393.166046 291.256195,368.882599 
	C291.257111,361.958588 291.264404,361.912170 298.061035,361.963287 
	C308.361694,362.040771 306.895691,360.694855 307.005402,371.025848 
	C307.049530,375.183502 307.012665,379.342010 307.012665,384.000122 
z"/>
<path fill="#FFC106" opacity="1.000000" stroke="none" 
	d="
M291.256805,48.019188 
	C291.256836,45.194214 291.254852,42.865448 291.257080,40.536682 
	C291.264313,32.992962 291.264893,32.992958 298.728851,32.988811 
	C307.011383,32.984211 307.011536,32.984215 307.011566,41.465820 
	C307.011627,66.583229 306.906616,91.701469 307.105499,116.817299 
	C307.142548,121.493835 305.991333,123.300865 301.012238,123.118736 
	C290.921600,122.749626 291.223785,124.180367 291.244385,113.388123 
	C291.285675,91.763947 291.256683,70.139648 291.256805,48.019188 
z"/>
<path fill="#FFC000" opacity="1.000000" stroke="none" 
	d="
M497.930664,250.043762 
	C472.809387,250.043716 448.178223,249.944077 423.549255,250.135483 
	C419.118530,250.169922 417.773071,248.792603 417.915710,244.433243 
	C418.268341,233.656708 416.631531,234.624054 427.931763,234.616211 
	C452.562195,234.599106 477.193512,234.721146 501.822266,234.517181 
	C506.678650,234.476959 508.209564,236.029327 508.082550,240.840561 
	C507.804596,251.368362 508.510284,249.977188 497.930664,250.043762 
z"/>
</svg>